<svg id="visual" viewBox="0 0 960 540" width="960" height="540" xmlns="http://www.w3.org/2000/svg" xmlns:xlink="http://www.w3.org/1999/xlink" version="1.1"><rect x="0" y="0" width="960" height="540" fill="#121526"></rect><path d="M0 370L22.8 365.5C45.7 361 91.3 352 137 349.8C182.7 347.7 228.3 352.3 274 358.2C319.7 364 365.3 371 411.2 370.3C457 369.7 503 361.3 548.8 360.3C594.7 359.3 640.3 365.7 686 364.7C731.7 363.7 777.3 355.3 823 353.5C868.7 351.7 914.3 356.3 937.2 358.7L960 361L960 541L937.2 541C914.3 541 868.7 541 823 541C777.3 541 731.7 541 686 541C640.3 541 594.7 541 548.8 541C503 541 457 541 411.2 541C365.3 541 319.7 541 274 541C228.3 541 182.7 541 137 541C91.3 541 45.7 541 22.8 541L0 541Z" fill="#2e365e"></path><path d="M0 377L22.8 375.3C45.7 373.7 91.3 370.3 137 374.3C182.7 378.3 228.3 389.7 274 390.8C319.7 392 365.3 383 411.2 386.8C457 390.7 503 407.3 548.8 414C594.7 420.7 640.3 417.3 686 417C731.7 416.7 777.3 419.3 823 415.5C868.7 411.7 914.3 401.3 937.2 396.2L960 391L960 541L937.2 541C914.3 541 868.7 541 823 541C777.3 541 731.7 541 686 541C640.3 541 594.7 541 548.8 541C503 541 457 541 411.2 541C365.3 541 319.7 541 274 541C228.3 541 182.7 541 137 541C91.3 541 45.7 541 22.8 541L0 541Z" fill="#272d50"></path><path d="M0 419L22.8 418.7C45.7 418.3 91.3 417.7 137 423.3C182.7 429 228.3 441 274 439.3C319.7 437.7 365.3 422.3 411.2 418.2C457 414 503 421 548.8 422.8C594.7 424.7 640.3 421.3 686 417C731.7 412.7 777.3 407.3 823 403.8C868.7 400.3 914.3 398.7 937.2 397.8L960 397L960 541L937.2 541C914.3 541 868.7 541 823 541C777.3 541 731.7 541 686 541C640.3 541 594.7 541 548.8 541C503 541 457 541 411.2 541C365.3 541 319.7 541 274 541C228.3 541 182.7 541 137 541C91.3 541 45.7 541 22.8 541L0 541Z" fill="#202543"></path><path d="M0 453L22.8 453C45.7 453 91.3 453 137 457.2C182.7 461.3 228.3 469.7 274 466.2C319.7 462.7 365.3 447.3 411.2 440.3C457 433.3 503 434.7 548.8 442.3C594.7 450 640.3 464 686 472.3C731.7 480.7 777.3 483.3 823 477C868.7 470.7 914.3 455.3 937.2 447.7L960 440L960 541L937.2 541C914.3 541 868.7 541 823 541C777.3 541 731.7 541 686 541C640.3 541 594.7 541 548.8 541C503 541 457 541 411.2 541C365.3 541 319.7 541 274 541C228.3 541 182.7 541 137 541C91.3 541 45.7 541 22.8 541L0 541Z" fill="#191d36"></path><path d="M0 483L22.8 487.3C45.7 491.7 91.3 500.3 137 505C182.7 509.7 228.3 510.3 274 507.8C319.7 505.3 365.3 499.7 411.2 495.7C457 491.7 503 489.3 548.8 492.3C594.7 495.3 640.3 503.7 686 507.8C731.7 512 777.3 512 823 510.5C868.7 509 914.3 506 937.2 504.5L960 503L960 541L937.2 541C914.3 541 868.7 541 823 541C777.3 541 731.7 541 686 541C640.3 541 594.7 541 548.8 541C503 541 457 541 411.2 541C365.3 541 319.7 541 274 541C228.3 541 182.7 541 137 541C91.3 541 45.7 541 22.8 541L0 541Z" fill="#121529"></path></svg>