<svg id="visual" viewBox="0 0 900 300" width="900" height="300" xmlns="http://www.w3.org/2000/svg" xmlns:xlink="http://www.w3.org/1999/xlink" version="1.1"><path d="M0 37L13.7 36.5C27.3 36 54.7 35 82 35.5C109.3 36 136.7 38 163.8 38.5C191 39 218 38 245.2 36.5C272.3 35 299.7 33 327 31.5C354.3 30 381.7 29 409 29.5C436.3 30 463.7 32 491 34C518.3 36 545.7 38 573 35.5C600.3 33 627.7 26 654.8 24C682 22 709 25 736.2 27.5C763.3 30 790.7 32 818 31C845.3 30 872.7 26 886.3 24L900 22L900 0L886.3 0C872.7 0 845.3 0 818 0C790.7 0 763.3 0 736.2 0C709 0 682 0 654.8 0C627.7 0 600.3 0 573 0C545.7 0 518.3 0 491 0C463.7 0 436.3 0 409 0C381.7 0 354.3 0 327 0C299.7 0 272.3 0 245.2 0C218 0 191 0 163.8 0C136.7 0 109.3 0 82 0C54.7 0 27.3 0 13.7 0L0 0Z" fill="#63c671"></path><path d="M0 157L13.7 149.5C27.3 142 54.7 127 82 114.5C109.3 102 136.7 92 163.8 97C191 102 218 122 245.2 128C272.3 134 299.7 126 327 119.5C354.3 113 381.7 108 409 109.5C436.3 111 463.7 119 491 120.5C518.3 122 545.7 117 573 115C600.3 113 627.7 114 654.8 112.5C682 111 709 107 736.2 116.5C763.3 126 790.7 149 818 148C845.3 147 872.7 122 886.3 109.5L900 97L900 20L886.3 22C872.7 24 845.3 28 818 29C790.7 30 763.3 28 736.2 25.5C709 23 682 20 654.8 22C627.7 24 600.3 31 573 33.5C545.7 36 518.3 34 491 32C463.7 30 436.3 28 409 27.5C381.7 27 354.3 28 327 29.5C299.7 31 272.3 33 245.2 34.5C218 36 191 37 163.8 36.5C136.7 36 109.3 34 82 33.5C54.7 33 27.3 34 13.7 34.5L0 35Z" fill="#48ba59"></path><path d="M0 214L13.7 209C27.3 204 54.7 194 82 181.5C109.3 169 136.7 154 163.8 152C191 150 218 161 245.2 166.5C272.3 172 299.7 172 327 167C354.3 162 381.7 152 409 155C436.3 158 463.7 174 491 176C518.3 178 545.7 166 573 161C600.3 156 627.7 158 654.8 156C682 154 709 148 736.2 157C763.3 166 790.7 190 818 191.5C845.3 193 872.7 172 886.3 161.5L900 151L900 95L886.3 107.5C872.7 120 845.3 145 818 146C790.7 147 763.3 124 736.2 114.5C709 105 682 109 654.8 110.5C627.7 112 600.3 111 573 113C545.7 115 518.3 120 491 118.5C463.7 117 436.3 109 409 107.5C381.7 106 354.3 111 327 117.5C299.7 124 272.3 132 245.2 126C218 120 191 100 163.8 95C136.7 90 109.3 100 82 112.5C54.7 125 27.3 140 13.7 147.5L0 155Z" fill="#24ae3f"></path><path d="M0 265L13.7 261C27.3 257 54.7 249 82 247C109.3 245 136.7 249 163.8 251C191 253 218 253 245.2 251.5C272.3 250 299.7 247 327 249.5C354.3 252 381.7 260 409 264.5C436.3 269 463.7 270 491 269C518.3 268 545.7 265 573 264.5C600.3 264 627.7 266 654.8 262C682 258 709 248 736.2 248C763.3 248 790.7 258 818 259.5C845.3 261 872.7 254 886.3 250.5L900 247L900 149L886.3 159.5C872.7 170 845.3 191 818 189.5C790.7 188 763.3 164 736.2 155C709 146 682 152 654.8 154C627.7 156 600.3 154 573 159C545.7 164 518.3 176 491 174C463.7 172 436.3 156 409 153C381.7 150 354.3 160 327 165C299.7 170 272.3 170 245.2 164.5C218 159 191 148 163.8 150C136.7 152 109.3 167 82 179.5C54.7 192 27.3 202 13.7 207L0 212Z" fill="#1e9737"></path><path d="M0 301L13.7 301C27.3 301 54.7 301 82 301C109.3 301 136.7 301 163.8 301C191 301 218 301 245.2 301C272.3 301 299.7 301 327 301C354.3 301 381.7 301 409 301C436.3 301 463.7 301 491 301C518.3 301 545.7 301 573 301C600.3 301 627.7 301 654.8 301C682 301 709 301 736.2 301C763.3 301 790.7 301 818 301C845.3 301 872.7 301 886.3 301L900 301L900 245L886.3 248.5C872.7 252 845.3 259 818 257.5C790.7 256 763.3 246 736.2 246C709 246 682 256 654.8 260C627.7 264 600.3 262 573 262.5C545.7 263 518.3 266 491 267C463.7 268 436.3 267 409 262.5C381.7 258 354.3 250 327 247.5C299.7 245 272.3 248 245.2 249.5C218 251 191 251 163.8 249C136.7 247 109.3 243 82 245C54.7 247 27.3 255 13.7 259L0 263Z" fill="#19802f"></path></svg>